<svg id="Capa_1" enable-background="new 0 0 494.801 494.801" height="512" viewBox="0 0 494.801 494.801" width="512" xmlns="http://www.w3.org/2000/svg"><g><circle cx="247.4" cy="247.4" fill="#c7bec6" r="247.4"/><path d="m84.709 247.4c0-122.193 88.599-223.696 205.053-243.788-13.764-2.374-27.92-3.612-42.362-3.612-136.635 0-247.4 110.765-247.4 247.4s110.765 247.4 247.4 247.4c14.442 0 28.619-1.242 42.383-3.616-116.454-20.092-205.074-121.59-205.074-243.784z" fill="#baafb9"/><path d="m247.4 462.801c-57.536 0-111.627-22.406-152.311-63.089-40.683-40.685-63.089-94.776-63.089-152.312s22.406-111.627 63.089-152.311c40.684-40.683 94.776-63.089 152.311-63.089s111.627 22.406 152.311 63.089c40.684 40.684 63.089 94.775 63.089 152.311s-22.406 111.627-63.089 152.311c-40.684 40.684-94.775 63.09-152.311 63.09z" fill="#f7f2f0"/><path d="m202.455 36.668c-40.385 8.53-77.493 28.549-107.365 58.421-40.684 40.684-63.09 94.776-63.09 152.311s22.406 111.627 63.089 152.311c29.872 29.872 66.985 49.892 107.369 58.422-70.645-43.556-117.749-121.646-117.749-210.733s47.1-167.175 117.746-210.732z" fill="#f1e9e6"/><g><g><path d="m390.257 201.874c-3.047 0-5.913-1.871-7.034-4.896-7.247-19.554-18.493-37.041-33.426-51.975-14.934-14.933-32.42-26.179-51.975-33.426-3.884-1.439-5.866-5.755-4.426-9.639 1.439-3.883 5.754-5.864 9.639-4.426 21.594 8.003 40.896 20.413 57.368 36.885s28.882 35.774 36.885 57.368c1.439 3.884-.542 8.2-4.426 9.639-.859.319-1.739.47-2.605.47z" fill="#e3817f"/></g><g><path d="m104.543 201.874c-.866 0-1.746-.151-2.605-.469-3.884-1.439-5.866-5.755-4.426-9.639 8.003-21.594 20.413-40.896 36.885-57.368s35.774-28.882 57.368-36.885c3.885-1.44 8.2.542 9.639 4.426s-.542 8.2-4.426 9.639c-19.554 7.247-37.041 18.493-51.975 33.426-14.933 14.934-26.179 32.42-33.426 51.975-1.121 3.023-3.986 4.895-7.034 4.895z" fill="#e3817f"/></g><g><path d="m300.43 397.758c-3.047 0-5.913-1.871-7.034-4.896-1.439-3.884.542-8.2 4.426-9.639 19.554-7.247 37.041-18.493 51.975-33.426 14.933-14.934 26.179-32.42 33.426-51.975 1.439-3.883 5.756-5.865 9.639-4.426 3.884 1.439 5.866 5.755 4.426 9.639-8.003 21.594-20.413 40.896-36.885 57.368s-35.774 28.882-57.368 36.885c-.859.319-1.74.47-2.605.47z" fill="#85d6e4"/></g><g><path d="m194.371 397.758c-.866 0-1.746-.151-2.605-.469-21.594-8.003-40.896-20.413-57.368-36.885s-28.882-35.774-36.885-57.368c-1.439-3.884.542-8.2 4.426-9.639 3.885-1.441 8.199.542 9.639 4.426 7.247 19.554 18.493 37.041 33.426 51.975 14.934 14.933 32.42 26.179 51.975 33.426 3.884 1.439 5.866 5.755 4.426 9.639-1.122 3.024-3.987 4.895-7.034 4.895z" fill="#85d6e4"/></g></g><g fill="#c9bfc8"><path d="m265.406 70.926c-4.142 0-7.5 3.358-7.5 7.5v22.647l-22.375-27.392c-2.006-2.456-5.339-3.385-8.327-2.32-2.987 1.065-4.981 3.894-4.981 7.064v44.993c0 4.142 3.358 7.5 7.5 7.5s7.5-3.358 7.5-7.5v-23.955l22.375 27.392c2.006 2.457 5.341 3.385 8.327 2.32 2.987-1.065 4.981-3.894 4.981-7.064v-43.685c0-4.142-3.358-7.5-7.5-7.5z"/><path d="m413.046 264.887h-20.744v-9.987h11.556c4.142 0 7.5-3.358 7.5-7.5s-3.358-7.5-7.5-7.5h-11.556v-9.986h20.744c4.142 0 7.5-3.358 7.5-7.5s-3.358-7.5-7.5-7.5h-25.452c-5.675 0-10.292 4.617-10.292 10.292v44.39c0 5.675 4.617 10.292 10.292 10.292h25.452c4.142 0 7.5-3.358 7.5-7.5s-3.358-7.501-7.5-7.501z"/><path d="m118.789 222.616c-4.037-.929-8.062 1.591-8.99 5.628l-5.598 24.335-3.042-3.969c-1.419-1.852-3.619-2.937-5.952-2.937s-4.533 1.085-5.952 2.937l-3.043 3.97-5.598-24.336c-.928-4.037-4.958-6.557-8.99-5.628-4.037.929-6.557 4.954-5.628 8.99l9.168 39.858c.651 2.831 2.878 5.031 5.716 5.648 2.837.618 5.777-.461 7.545-2.766l6.782-8.846 6.781 8.845c1.437 1.875 3.649 2.938 5.952 2.938.529 0 1.063-.056 1.593-.171 2.838-.617 5.065-2.817 5.716-5.648l9.168-39.858c.929-4.037-1.591-8.062-5.628-8.99z"/><path d="m242.978 375.077h20.968c4.142 0 7.5-3.358 7.5-7.5s-3.358-7.5-7.5-7.5h-20.968c-9.302 0-16.869 7.567-16.869 16.869v6.738c0 9.302 7.567 16.869 16.869 16.869h11.599c1.031 0 1.869.838 1.869 1.869v8.373c0 1.031-.838 1.869-1.869 1.869h-20.968c-4.142 0-7.5 3.358-7.5 7.5s3.358 7.5 7.5 7.5h20.968c9.302 0 16.869-7.567 16.869-16.869v-8.373c0-9.302-7.567-16.869-16.869-16.869h-11.599c-1.031 0-1.869-.838-1.869-1.869v-6.738c0-1.031.838-1.869 1.869-1.869z"/></g><path d="m310.203 296.809-57.421-126.506c-2.28-5.024-9.425-4.998-11.669.042l-56.353 126.562c-2.315 5.199 2.801 10.605 8.12 8.58l52.409-19.95c1.466-.558 3.086-.558 4.552 0l52.262 19.894c5.338 2.033 10.461-3.42 8.1-8.622z" fill="#e3817f"/></g></svg>